G04 start of page 10 for group -4015 idx -4015 *
G04 Title: (unknown), toppaste *
G04 Creator: pcb 20140316 *
G04 CreationDate: Mon 31 Jul 2017 07:56:20 GMT UTC *
G04 For: harold *
G04 Format: Gerber/RS-274X *
G04 PCB-Dimensions (mil): 6000.00 5000.00 *
G04 PCB-Coordinate-Origin: lower left *
%MOIN*%
%FSLAX25Y25*%
%LNTOPPASTE*%
%ADD38R,0.0200X0.0200*%
%ADD37R,0.0340X0.0340*%
%ADD36R,0.0276X0.0276*%
G54D36*X101123Y286243D02*X103877D01*
X101123Y278757D02*X103877D01*
X123623Y286243D02*X126377D01*
X123623Y278757D02*X126377D01*
X108623D02*X111377D01*
X108623Y286243D02*X111377D01*
X101123Y296257D02*X103877D01*
X101123Y303743D02*X103877D01*
X116123Y278757D02*X118877D01*
X116123Y286243D02*X118877D01*
X218743Y281377D02*Y278623D01*
X211257Y281377D02*Y278623D01*
X231243Y281377D02*Y278623D01*
X223757Y281377D02*Y278623D01*
X243743Y281377D02*Y278623D01*
X236257Y281377D02*Y278623D01*
X243743Y288877D02*Y286123D01*
X236257Y288877D02*Y286123D01*
X208743Y291377D02*Y288623D01*
X201257Y291377D02*Y288623D01*
X208743Y306377D02*Y303623D01*
X201257Y306377D02*Y303623D01*
X196257Y281377D02*Y278623D01*
X203743Y281377D02*Y278623D01*
X201257Y298877D02*Y296123D01*
X208743Y298877D02*Y296123D01*
X236257Y306377D02*Y303623D01*
X243743Y306377D02*Y303623D01*
Y298877D02*Y296123D01*
X236257Y298877D02*Y296123D01*
G54D37*X119200Y301100D02*X119800D01*
X110000Y305000D02*X110600D01*
X110000Y297200D02*X110600D01*
G54D36*X126123Y296257D02*X128877D01*
X126123Y303743D02*X128877D01*
G54D37*X221400Y302300D02*Y301700D01*
X217500Y293100D02*Y292500D01*
X225300Y293100D02*Y292500D01*
G54D36*X141243Y283877D02*Y281123D01*
X133757Y283877D02*Y281123D01*
Y301377D02*Y298623D01*
X141243Y301377D02*Y298623D01*
X153743Y283877D02*Y281123D01*
X146257Y283877D02*Y281123D01*
X153743Y293877D02*Y291123D01*
X146257Y293877D02*Y291123D01*
X141243Y293877D02*Y291123D01*
X133757Y293877D02*Y291123D01*
X146257Y301377D02*Y298623D01*
X153743Y301377D02*Y298623D01*
X153623Y268757D02*X156377D01*
X153623Y276243D02*X156377D01*
X161123D02*X163877D01*
X161123Y268757D02*X163877D01*
X168623D02*X171377D01*
X168623Y276243D02*X171377D01*
X176123Y268757D02*X178877D01*
X176123Y276243D02*X178877D01*
X183623D02*X186377D01*
X183623Y268757D02*X186377D01*
G54D38*X161500Y300000D02*X168000D01*
X161500Y295000D02*X168000D01*
X161500Y290000D02*X168000D01*
X161500Y285000D02*X168000D01*
X182000D02*X188500D01*
X182000Y290000D02*X188500D01*
X182000Y295000D02*X188500D01*
X182000Y300000D02*X188500D01*
M02*
