G04 start of page 3 for group 5 idx 5 *
G04 Title: (unknown), bottom *
G04 Creator: pcb 20140316 *
G04 CreationDate: Mon 31 Jul 2017 07:56:20 GMT UTC *
G04 For: harold *
G04 Format: Gerber/RS-274X *
G04 PCB-Dimensions (mil): 6000.00 5000.00 *
G04 PCB-Coordinate-Origin: lower left *
%MOIN*%
%FSLAX25Y25*%
%LNBOTTOM*%
%ADD24C,0.0340*%
%ADD23C,0.0200*%
%ADD22C,0.0460*%
%ADD21C,0.0250*%
%ADD20C,0.0001*%
G54D20*G36*
X239150Y310000D02*X250000D01*
Y265000D01*
X239150D01*
Y267647D01*
X239291Y267658D01*
X239429Y267691D01*
X239560Y267746D01*
X239681Y267820D01*
X239788Y267912D01*
X239880Y268019D01*
X239954Y268140D01*
X240009Y268271D01*
X240042Y268409D01*
X240050Y268550D01*
Y271450D01*
X240042Y271591D01*
X240009Y271729D01*
X239954Y271860D01*
X239880Y271981D01*
X239788Y272088D01*
X239681Y272180D01*
X239560Y272254D01*
X239429Y272309D01*
X239291Y272342D01*
X239150Y272353D01*
Y280168D01*
X242750Y276568D01*
Y274739D01*
X241515Y274736D01*
X241285Y274681D01*
X241067Y274591D01*
X240866Y274467D01*
X240686Y274314D01*
X240533Y274134D01*
X240409Y273933D01*
X240319Y273715D01*
X240264Y273485D01*
X240250Y273250D01*
X240264Y266515D01*
X240319Y266285D01*
X240409Y266067D01*
X240533Y265866D01*
X240686Y265686D01*
X240866Y265533D01*
X241067Y265409D01*
X241285Y265319D01*
X241515Y265264D01*
X241750Y265250D01*
X248485Y265264D01*
X248715Y265319D01*
X248933Y265409D01*
X249134Y265533D01*
X249314Y265686D01*
X249467Y265866D01*
X249591Y266067D01*
X249681Y266285D01*
X249736Y266515D01*
X249750Y266750D01*
X249736Y273485D01*
X249681Y273715D01*
X249591Y273933D01*
X249467Y274134D01*
X249314Y274314D01*
X249134Y274467D01*
X248933Y274591D01*
X248715Y274681D01*
X248485Y274736D01*
X248250Y274750D01*
X247250Y274748D01*
Y277412D01*
X247257Y277500D01*
X247229Y277853D01*
X247146Y278197D01*
X247107Y278293D01*
X247011Y278525D01*
X246896Y278712D01*
X246826Y278827D01*
X246826Y278827D01*
X246596Y279096D01*
X246529Y279153D01*
X239150Y286532D01*
Y310000D01*
G37*
G36*
Y265000D02*X236750D01*
X236860Y265046D01*
X236981Y265120D01*
X237088Y265212D01*
X237180Y265319D01*
X237254Y265440D01*
X237309Y265571D01*
X237342Y265709D01*
X237353Y265850D01*
X237342Y265991D01*
X237309Y266129D01*
X237254Y266260D01*
X237180Y266381D01*
X237088Y266488D01*
X236981Y266580D01*
X236860Y266654D01*
X236729Y266709D01*
X236591Y266742D01*
X236450Y266750D01*
X235000D01*
Y273250D01*
X236450D01*
X236591Y273258D01*
X236729Y273291D01*
X236860Y273346D01*
X236981Y273420D01*
X237088Y273512D01*
X237180Y273619D01*
X237254Y273740D01*
X237309Y273871D01*
X237342Y274009D01*
X237353Y274150D01*
X237342Y274291D01*
X237309Y274429D01*
X237254Y274560D01*
X237180Y274681D01*
X237088Y274788D01*
X236981Y274880D01*
X236860Y274954D01*
X236729Y275009D01*
X236591Y275042D01*
X236450Y275050D01*
X235000D01*
Y284318D01*
X239150Y280168D01*
Y272353D01*
X239009Y272342D01*
X238871Y272309D01*
X238740Y272254D01*
X238619Y272180D01*
X238512Y272088D01*
X238420Y271981D01*
X238346Y271860D01*
X238291Y271729D01*
X238258Y271591D01*
X238250Y271450D01*
Y268550D01*
X238258Y268409D01*
X238291Y268271D01*
X238346Y268140D01*
X238420Y268019D01*
X238512Y267912D01*
X238619Y267820D01*
X238740Y267746D01*
X238871Y267691D01*
X239009Y267658D01*
X239150Y267647D01*
Y265000D01*
G37*
G36*
X235000Y266750D02*X233550D01*
X233409Y266742D01*
X233271Y266709D01*
X233140Y266654D01*
X233019Y266580D01*
X232912Y266488D01*
X232820Y266381D01*
X232746Y266260D01*
X232691Y266129D01*
X232658Y265991D01*
X232647Y265850D01*
X232658Y265709D01*
X232691Y265571D01*
X232746Y265440D01*
X232820Y265319D01*
X232912Y265212D01*
X233019Y265120D01*
X233140Y265046D01*
X233250Y265000D01*
X230850D01*
Y267647D01*
X230991Y267658D01*
X231129Y267691D01*
X231260Y267746D01*
X231381Y267820D01*
X231488Y267912D01*
X231580Y268019D01*
X231654Y268140D01*
X231709Y268271D01*
X231742Y268409D01*
X231750Y268550D01*
Y271450D01*
X231742Y271591D01*
X231709Y271729D01*
X231654Y271860D01*
X231580Y271981D01*
X231488Y272088D01*
X231381Y272180D01*
X231260Y272254D01*
X231129Y272309D01*
X230991Y272342D01*
X230850Y272353D01*
Y288468D01*
X235000Y284318D01*
Y275050D01*
X233550D01*
X233409Y275042D01*
X233271Y275009D01*
X233140Y274954D01*
X233019Y274880D01*
X232912Y274788D01*
X232820Y274681D01*
X232746Y274560D01*
X232691Y274429D01*
X232658Y274291D01*
X232647Y274150D01*
X232658Y274009D01*
X232691Y273871D01*
X232746Y273740D01*
X232820Y273619D01*
X232912Y273512D01*
X233019Y273420D01*
X233140Y273346D01*
X233271Y273291D01*
X233409Y273258D01*
X233550Y273250D01*
X235000D01*
Y266750D01*
G37*
G36*
X230850Y265000D02*X220720D01*
Y297750D01*
X221568D01*
X230850Y288468D01*
Y272353D01*
X230709Y272342D01*
X230571Y272309D01*
X230440Y272254D01*
X230319Y272180D01*
X230212Y272088D01*
X230120Y271981D01*
X230046Y271860D01*
X229991Y271729D01*
X229958Y271591D01*
X229950Y271450D01*
Y268550D01*
X229958Y268409D01*
X229991Y268271D01*
X230046Y268140D01*
X230120Y268019D01*
X230212Y267912D01*
X230319Y267820D01*
X230440Y267746D01*
X230571Y267691D01*
X230709Y267658D01*
X230850Y267647D01*
Y265000D01*
G37*
G36*
X220720Y310000D02*X239150D01*
Y286532D01*
X224153Y301529D01*
X224096Y301596D01*
X223827Y301826D01*
X223525Y302011D01*
X223197Y302146D01*
X222853Y302229D01*
X222853Y302229D01*
X222500Y302257D01*
X222412Y302250D01*
X220720D01*
Y310000D01*
G37*
G36*
X215000Y297750D02*X220720D01*
Y265000D01*
X215000D01*
Y265257D01*
X218485Y265264D01*
X218715Y265319D01*
X218933Y265409D01*
X219134Y265533D01*
X219314Y265686D01*
X219467Y265866D01*
X219591Y266067D01*
X219681Y266285D01*
X219736Y266515D01*
X219750Y266750D01*
X219736Y273485D01*
X219681Y273715D01*
X219591Y273933D01*
X219467Y274134D01*
X219314Y274314D01*
X219134Y274467D01*
X218933Y274591D01*
X218715Y274681D01*
X218485Y274736D01*
X218250Y274750D01*
X215000Y274743D01*
Y297750D01*
G37*
G36*
X205000D02*X215000D01*
Y274743D01*
X211515Y274736D01*
X211285Y274681D01*
X211067Y274591D01*
X210866Y274467D01*
X210686Y274314D01*
X210533Y274134D01*
X210409Y273933D01*
X210319Y273715D01*
X210264Y273485D01*
X210250Y273250D01*
X210264Y266515D01*
X210319Y266285D01*
X210409Y266067D01*
X210533Y265866D01*
X210686Y265686D01*
X210866Y265533D01*
X211067Y265409D01*
X211285Y265319D01*
X211515Y265264D01*
X211750Y265250D01*
X215000Y265257D01*
Y265000D01*
X205000D01*
Y265257D01*
X208485Y265264D01*
X208715Y265319D01*
X208933Y265409D01*
X209134Y265533D01*
X209314Y265686D01*
X209467Y265866D01*
X209591Y266067D01*
X209681Y266285D01*
X209736Y266515D01*
X209750Y266750D01*
X209736Y273485D01*
X209681Y273715D01*
X209591Y273933D01*
X209467Y274134D01*
X209314Y274314D01*
X209134Y274467D01*
X208933Y274591D01*
X208715Y274681D01*
X208485Y274736D01*
X208250Y274750D01*
X205000Y274743D01*
Y297750D01*
G37*
G36*
Y310000D02*X220720D01*
Y302250D01*
X205000D01*
Y310000D01*
G37*
G36*
X170172D02*X205000D01*
Y302250D01*
X197418D01*
X197341Y302341D01*
X196946Y302678D01*
X196503Y302949D01*
X196023Y303148D01*
X195518Y303269D01*
X195000Y303310D01*
X194482Y303269D01*
X193977Y303148D01*
X193497Y302949D01*
X193054Y302678D01*
X192659Y302341D01*
X192322Y301946D01*
X192051Y301503D01*
X191852Y301023D01*
X191731Y300518D01*
X191690Y300000D01*
X191731Y299482D01*
X191852Y298977D01*
X192051Y298497D01*
X192322Y298054D01*
X192659Y297659D01*
X193054Y297322D01*
X193497Y297051D01*
X193977Y296852D01*
X194482Y296731D01*
X195000Y296690D01*
X195518Y296731D01*
X196023Y296852D01*
X196503Y297051D01*
X196946Y297322D01*
X197341Y297659D01*
X197418Y297750D01*
X205000D01*
Y274743D01*
X201515Y274736D01*
X201285Y274681D01*
X201067Y274591D01*
X200866Y274467D01*
X200686Y274314D01*
X200533Y274134D01*
X200409Y273933D01*
X200319Y273715D01*
X200264Y273485D01*
X200250Y273250D01*
X200264Y266515D01*
X200319Y266285D01*
X200409Y266067D01*
X200533Y265866D01*
X200686Y265686D01*
X200866Y265533D01*
X201067Y265409D01*
X201285Y265319D01*
X201515Y265264D01*
X201750Y265250D01*
X205000Y265257D01*
Y265000D01*
X170172D01*
Y278353D01*
X170222Y278367D01*
X170294Y278401D01*
X170359Y278444D01*
X170417Y278498D01*
X170465Y278560D01*
X170502Y278630D01*
X170622Y278920D01*
X170711Y279221D01*
X170770Y279530D01*
X170800Y279843D01*
Y280157D01*
X170770Y280470D01*
X170711Y280779D01*
X170622Y281080D01*
X170505Y281372D01*
X170467Y281441D01*
X170419Y281504D01*
X170361Y281558D01*
X170295Y281602D01*
X170223Y281635D01*
X170172Y281650D01*
Y310000D01*
G37*
G36*
X167501D02*X170172D01*
Y281650D01*
X170147Y281657D01*
X170069Y281666D01*
X169990Y281664D01*
X169912Y281649D01*
X169838Y281621D01*
X169769Y281583D01*
X169706Y281534D01*
X169652Y281476D01*
X169608Y281411D01*
X169575Y281339D01*
X169553Y281263D01*
X169543Y281184D01*
X169546Y281105D01*
X169561Y281028D01*
X169590Y280954D01*
X169674Y280752D01*
X169735Y280542D01*
X169777Y280327D01*
X169797Y280109D01*
Y279891D01*
X169777Y279673D01*
X169735Y279458D01*
X169674Y279248D01*
X169592Y279045D01*
X169564Y278972D01*
X169549Y278894D01*
X169546Y278816D01*
X169556Y278738D01*
X169577Y278662D01*
X169610Y278591D01*
X169654Y278525D01*
X169708Y278468D01*
X169770Y278419D01*
X169839Y278381D01*
X169913Y278354D01*
X169990Y278339D01*
X170069Y278336D01*
X170147Y278346D01*
X170172Y278353D01*
Y265000D01*
X167501D01*
Y276700D01*
X167657D01*
X167970Y276730D01*
X168279Y276789D01*
X168580Y276878D01*
X168872Y276995D01*
X168941Y277033D01*
X169004Y277081D01*
X169058Y277139D01*
X169102Y277205D01*
X169135Y277277D01*
X169157Y277353D01*
X169166Y277431D01*
X169164Y277510D01*
X169149Y277588D01*
X169121Y277662D01*
X169083Y277731D01*
X169034Y277794D01*
X168976Y277848D01*
X168911Y277892D01*
X168839Y277925D01*
X168763Y277947D01*
X168684Y277957D01*
X168605Y277954D01*
X168528Y277939D01*
X168454Y277910D01*
X168252Y277826D01*
X168042Y277765D01*
X167827Y277723D01*
X167609Y277703D01*
X167501D01*
Y282297D01*
X167609D01*
X167827Y282277D01*
X168042Y282235D01*
X168252Y282174D01*
X168455Y282092D01*
X168528Y282064D01*
X168606Y282049D01*
X168684Y282046D01*
X168762Y282056D01*
X168838Y282077D01*
X168909Y282110D01*
X168975Y282154D01*
X169032Y282208D01*
X169081Y282270D01*
X169119Y282339D01*
X169146Y282413D01*
X169161Y282490D01*
X169164Y282569D01*
X169154Y282647D01*
X169133Y282722D01*
X169099Y282794D01*
X169056Y282859D01*
X169002Y282917D01*
X168940Y282965D01*
X168870Y283002D01*
X168580Y283122D01*
X168279Y283211D01*
X167970Y283270D01*
X167657Y283300D01*
X167501D01*
Y310000D01*
G37*
G36*
X164828D02*X167501D01*
Y283300D01*
X167343D01*
X167030Y283270D01*
X166721Y283211D01*
X166420Y283122D01*
X166128Y283005D01*
X166059Y282967D01*
X165996Y282919D01*
X165942Y282861D01*
X165898Y282795D01*
X165865Y282723D01*
X165843Y282647D01*
X165834Y282569D01*
X165836Y282490D01*
X165851Y282412D01*
X165879Y282338D01*
X165917Y282269D01*
X165966Y282206D01*
X166024Y282152D01*
X166089Y282108D01*
X166161Y282075D01*
X166237Y282053D01*
X166316Y282043D01*
X166395Y282046D01*
X166472Y282061D01*
X166546Y282090D01*
X166748Y282174D01*
X166958Y282235D01*
X167173Y282277D01*
X167391Y282297D01*
X167501D01*
Y277703D01*
X167391D01*
X167173Y277723D01*
X166958Y277765D01*
X166748Y277826D01*
X166545Y277908D01*
X166472Y277936D01*
X166394Y277951D01*
X166316Y277954D01*
X166238Y277944D01*
X166162Y277923D01*
X166091Y277890D01*
X166025Y277846D01*
X165968Y277792D01*
X165919Y277730D01*
X165881Y277661D01*
X165854Y277587D01*
X165839Y277510D01*
X165836Y277431D01*
X165846Y277353D01*
X165867Y277278D01*
X165901Y277206D01*
X165944Y277141D01*
X165998Y277083D01*
X166060Y277035D01*
X166130Y276998D01*
X166420Y276878D01*
X166721Y276789D01*
X167030Y276730D01*
X167343Y276700D01*
X167501D01*
Y265000D01*
X164828D01*
Y278350D01*
X164853Y278343D01*
X164931Y278334D01*
X165010Y278336D01*
X165088Y278351D01*
X165162Y278379D01*
X165231Y278417D01*
X165294Y278466D01*
X165348Y278524D01*
X165392Y278589D01*
X165425Y278661D01*
X165447Y278737D01*
X165457Y278816D01*
X165454Y278895D01*
X165439Y278972D01*
X165410Y279046D01*
X165326Y279248D01*
X165265Y279458D01*
X165223Y279673D01*
X165203Y279891D01*
Y280109D01*
X165223Y280327D01*
X165265Y280542D01*
X165326Y280752D01*
X165408Y280955D01*
X165436Y281028D01*
X165451Y281106D01*
X165454Y281184D01*
X165444Y281262D01*
X165423Y281338D01*
X165390Y281409D01*
X165346Y281475D01*
X165292Y281532D01*
X165230Y281581D01*
X165161Y281619D01*
X165087Y281646D01*
X165010Y281661D01*
X164931Y281664D01*
X164853Y281654D01*
X164828Y281647D01*
Y310000D01*
G37*
G36*
X125000D02*X164828D01*
Y281647D01*
X164778Y281633D01*
X164706Y281599D01*
X164641Y281556D01*
X164583Y281502D01*
X164535Y281440D01*
X164498Y281370D01*
X164378Y281080D01*
X164289Y280779D01*
X164230Y280470D01*
X164200Y280157D01*
Y279843D01*
X164230Y279530D01*
X164289Y279221D01*
X164378Y278920D01*
X164495Y278628D01*
X164533Y278559D01*
X164581Y278496D01*
X164639Y278442D01*
X164705Y278398D01*
X164777Y278365D01*
X164828Y278350D01*
Y265000D01*
X125000D01*
Y265257D01*
X128485Y265264D01*
X128715Y265319D01*
X128933Y265409D01*
X129134Y265533D01*
X129314Y265686D01*
X129467Y265866D01*
X129591Y266067D01*
X129681Y266285D01*
X129736Y266515D01*
X129750Y266750D01*
X129736Y273485D01*
X129681Y273715D01*
X129591Y273933D01*
X129467Y274134D01*
X129314Y274314D01*
X129134Y274467D01*
X128933Y274591D01*
X128715Y274681D01*
X128485Y274736D01*
X128250Y274750D01*
X125000Y274743D01*
Y310000D01*
G37*
G36*
X119100D02*X125000D01*
Y274743D01*
X121515Y274736D01*
X121285Y274681D01*
X121067Y274591D01*
X120866Y274467D01*
X120686Y274314D01*
X120533Y274134D01*
X120409Y273933D01*
X120319Y273715D01*
X120264Y273485D01*
X120250Y273250D01*
X120264Y266515D01*
X120319Y266285D01*
X120409Y266067D01*
X120533Y265866D01*
X120686Y265686D01*
X120866Y265533D01*
X121067Y265409D01*
X121285Y265319D01*
X121515Y265264D01*
X121750Y265250D01*
X125000Y265257D01*
Y265000D01*
X119100D01*
Y267597D01*
X119233Y267608D01*
X119363Y267639D01*
X119487Y267690D01*
X119601Y267760D01*
X119703Y267847D01*
X119790Y267949D01*
X119860Y268063D01*
X119911Y268187D01*
X119942Y268317D01*
X119950Y268450D01*
Y271550D01*
X119942Y271683D01*
X119911Y271813D01*
X119860Y271937D01*
X119790Y272051D01*
X119703Y272153D01*
X119601Y272240D01*
X119487Y272310D01*
X119363Y272361D01*
X119233Y272392D01*
X119100Y272403D01*
Y310000D01*
G37*
G36*
X115000D02*X119100D01*
Y272403D01*
X118967Y272392D01*
X118837Y272361D01*
X118713Y272310D01*
X118599Y272240D01*
X118497Y272153D01*
X118410Y272051D01*
X118340Y271937D01*
X118289Y271813D01*
X118258Y271683D01*
X118250Y271550D01*
Y268450D01*
X118258Y268317D01*
X118289Y268187D01*
X118340Y268063D01*
X118410Y267949D01*
X118497Y267847D01*
X118599Y267760D01*
X118713Y267690D01*
X118837Y267639D01*
X118967Y267608D01*
X119100Y267597D01*
Y265000D01*
X115000D01*
Y265050D01*
X116550D01*
X116683Y265058D01*
X116813Y265089D01*
X116937Y265140D01*
X117051Y265210D01*
X117153Y265297D01*
X117240Y265399D01*
X117310Y265513D01*
X117361Y265637D01*
X117392Y265767D01*
X117403Y265900D01*
X117392Y266033D01*
X117361Y266163D01*
X117310Y266287D01*
X117240Y266401D01*
X117153Y266503D01*
X117051Y266590D01*
X116937Y266660D01*
X116813Y266711D01*
X116683Y266742D01*
X116550Y266750D01*
X115000D01*
Y273250D01*
X116550D01*
X116683Y273258D01*
X116813Y273289D01*
X116937Y273340D01*
X117051Y273410D01*
X117153Y273497D01*
X117240Y273599D01*
X117310Y273713D01*
X117361Y273837D01*
X117392Y273967D01*
X117403Y274100D01*
X117392Y274233D01*
X117361Y274363D01*
X117310Y274487D01*
X117240Y274601D01*
X117153Y274703D01*
X117051Y274790D01*
X116937Y274860D01*
X116813Y274911D01*
X116683Y274942D01*
X116550Y274950D01*
X115000D01*
Y310000D01*
G37*
G36*
X110900D02*X115000D01*
Y274950D01*
X113450D01*
X113317Y274942D01*
X113187Y274911D01*
X113063Y274860D01*
X112949Y274790D01*
X112847Y274703D01*
X112760Y274601D01*
X112690Y274487D01*
X112639Y274363D01*
X112608Y274233D01*
X112597Y274100D01*
X112608Y273967D01*
X112639Y273837D01*
X112690Y273713D01*
X112760Y273599D01*
X112847Y273497D01*
X112949Y273410D01*
X113063Y273340D01*
X113187Y273289D01*
X113317Y273258D01*
X113450Y273250D01*
X115000D01*
Y266750D01*
X113450D01*
X113317Y266742D01*
X113187Y266711D01*
X113063Y266660D01*
X112949Y266590D01*
X112847Y266503D01*
X112760Y266401D01*
X112690Y266287D01*
X112639Y266163D01*
X112608Y266033D01*
X112597Y265900D01*
X112608Y265767D01*
X112639Y265637D01*
X112690Y265513D01*
X112760Y265399D01*
X112847Y265297D01*
X112949Y265210D01*
X113063Y265140D01*
X113187Y265089D01*
X113317Y265058D01*
X113450Y265050D01*
X115000D01*
Y265000D01*
X110900D01*
Y267597D01*
X111033Y267608D01*
X111163Y267639D01*
X111287Y267690D01*
X111401Y267760D01*
X111503Y267847D01*
X111590Y267949D01*
X111660Y268063D01*
X111711Y268187D01*
X111742Y268317D01*
X111750Y268450D01*
Y271550D01*
X111742Y271683D01*
X111711Y271813D01*
X111660Y271937D01*
X111590Y272051D01*
X111503Y272153D01*
X111401Y272240D01*
X111287Y272310D01*
X111163Y272361D01*
X111033Y272392D01*
X110900Y272403D01*
Y310000D01*
G37*
G36*
X105000D02*X110900D01*
Y272403D01*
X110767Y272392D01*
X110637Y272361D01*
X110513Y272310D01*
X110399Y272240D01*
X110297Y272153D01*
X110210Y272051D01*
X110140Y271937D01*
X110089Y271813D01*
X110058Y271683D01*
X110050Y271550D01*
Y268450D01*
X110058Y268317D01*
X110089Y268187D01*
X110140Y268063D01*
X110210Y267949D01*
X110297Y267847D01*
X110399Y267760D01*
X110513Y267690D01*
X110637Y267639D01*
X110767Y267608D01*
X110900Y267597D01*
Y265000D01*
X105000D01*
Y265257D01*
X108485Y265264D01*
X108715Y265319D01*
X108933Y265409D01*
X109134Y265533D01*
X109314Y265686D01*
X109467Y265866D01*
X109591Y266067D01*
X109681Y266285D01*
X109736Y266515D01*
X109750Y266750D01*
X109736Y273485D01*
X109681Y273715D01*
X109591Y273933D01*
X109467Y274134D01*
X109314Y274314D01*
X109134Y274467D01*
X108933Y274591D01*
X108715Y274681D01*
X108485Y274736D01*
X108250Y274750D01*
X105000Y274743D01*
Y310000D01*
G37*
G36*
X100000D02*X105000D01*
Y274743D01*
X101515Y274736D01*
X101285Y274681D01*
X101067Y274591D01*
X100866Y274467D01*
X100686Y274314D01*
X100533Y274134D01*
X100409Y273933D01*
X100319Y273715D01*
X100264Y273485D01*
X100250Y273250D01*
X100264Y266515D01*
X100319Y266285D01*
X100409Y266067D01*
X100533Y265866D01*
X100686Y265686D01*
X100866Y265533D01*
X101067Y265409D01*
X101285Y265319D01*
X101515Y265264D01*
X101750Y265250D01*
X105000Y265257D01*
Y265000D01*
X100000D01*
Y310000D01*
G37*
G54D21*X245000Y270000D02*Y277500D01*
X222500Y300000D01*
X195000D01*
G54D20*G36*
X241750Y273250D02*Y266750D01*
X248250D01*
Y273250D01*
X241750D01*
G37*
G36*
X231750D02*Y266750D01*
X238250D01*
Y273250D01*
X231750D01*
G37*
G36*
X201750D02*Y266750D01*
X208250D01*
Y273250D01*
X201750D01*
G37*
G36*
X211750D02*Y266750D01*
X218250D01*
Y273250D01*
X211750D01*
G37*
G36*
X121750D02*Y266750D01*
X128250D01*
Y273250D01*
X121750D01*
G37*
G36*
X111750D02*Y266750D01*
X118250D01*
Y273250D01*
X111750D01*
G37*
G36*
X101750D02*Y266750D01*
X108250D01*
Y273250D01*
X101750D01*
G37*
G54D22*X195000Y300000D03*
X167500Y280000D03*
G54D23*G54D24*M02*
