G04 start of page 8 for group -4079 idx -4079 *
G04 Title: (unknown), topsilk *
G04 Creator: pcb 20140316 *
G04 CreationDate: Mon 31 Jul 2017 07:56:20 GMT UTC *
G04 For: harold *
G04 Format: Gerber/RS-274X *
G04 PCB-Dimensions (mil): 6000.00 5000.00 *
G04 PCB-Coordinate-Origin: lower left *
%MOIN*%
%FSLAX25Y25*%
%LNTOPSILK*%
%ADD33C,0.0100*%
G54D33*X240000Y275000D02*Y265000D01*
X250000D01*
Y275000D02*X240000D01*
Y265000D02*X250000D01*
Y275000D01*
X239607Y277245D02*X240393D01*
X239607Y282755D02*X240393D01*
X239607Y284745D02*X240393D01*
X239607Y290255D02*X240393D01*
X239607Y307755D02*X240393D01*
X239607Y302245D02*X240393D01*
X239607Y294745D02*X240393D01*
X239607Y300255D02*X240393D01*
X230000Y275000D02*Y265000D01*
X240000D01*
Y275000D02*X230000D01*
Y265000D02*X240000D01*
Y275000D01*
X200000D02*Y265000D01*
X210000D01*
Y275000D02*X200000D01*
Y265000D02*X210000D01*
Y275000D01*
X204607Y287245D02*X205393D01*
X204607Y292755D02*X205393D01*
X204607Y302245D02*X205393D01*
X204607Y307755D02*X205393D01*
X199607Y282755D02*X200393D01*
X199607Y277245D02*X200393D01*
X204607Y300255D02*X205393D01*
X204607Y294745D02*X205393D01*
X210000Y275000D02*Y265000D01*
X220000D01*
Y275000D02*X210000D01*
Y265000D02*X220000D01*
Y275000D01*
X214607Y277245D02*X215393D01*
X214607Y282755D02*X215393D01*
X227107Y277245D02*X227893D01*
X227107Y282755D02*X227893D01*
X215000Y304300D02*X227800D01*
Y290400D01*
X215000D02*X227800D01*
X215000Y304300D02*Y290400D01*
X105255Y282893D02*Y282107D01*
X99745Y282893D02*Y282107D01*
X107245Y282893D02*Y282107D01*
X112755Y282893D02*Y282107D01*
X99745Y300393D02*Y299607D01*
X105255Y300393D02*Y299607D01*
X120000Y275000D02*Y265000D01*
X130000D01*
Y275000D02*X120000D01*
Y265000D02*X130000D01*
Y275000D01*
X110000D02*Y265000D01*
X120000D01*
Y275000D02*X110000D01*
Y265000D02*X120000D01*
Y275000D01*
X100000D02*Y265000D01*
X110000D01*
Y275000D02*X100000D01*
Y265000D02*X110000D01*
Y275000D01*
X127755Y282893D02*Y282107D01*
X122245Y282893D02*Y282107D01*
X114745Y282893D02*Y282107D01*
X120255Y282893D02*Y282107D01*
X121800Y307500D02*Y294700D01*
X107900D02*X121800D01*
X107900Y307500D02*Y294700D01*
Y307500D02*X121800D01*
X124745Y300393D02*Y299607D01*
X130255Y300393D02*Y299607D01*
X137107Y302755D02*X137893D01*
X137107Y297245D02*X137893D01*
X137107Y289745D02*X137893D01*
X137107Y295255D02*X137893D01*
X137107Y279745D02*X137893D01*
X137107Y285255D02*X137893D01*
X149607Y279745D02*X150393D01*
X149607Y285255D02*X150393D01*
X149607Y289745D02*X150393D01*
X149607Y295255D02*X150393D01*
X152245Y272893D02*Y272107D01*
X157755Y272893D02*Y272107D01*
X149607Y302755D02*X150393D01*
X149607Y297245D02*X150393D01*
X165255Y272893D02*Y272107D01*
X159745Y272893D02*Y272107D01*
X167245Y272893D02*Y272107D01*
X172755Y272893D02*Y272107D01*
X174745Y272893D02*Y272107D01*
X180255Y272893D02*Y272107D01*
X187755Y272893D02*Y272107D01*
X182245Y272893D02*Y272107D01*
X159500Y302000D02*Y283000D01*
X190500D01*
Y302000D01*
X159500D02*X172500D01*
X190500D02*X177500D01*
X172500D02*G75*G03X177500Y302000I2500J0D01*G01*
X100039Y288650D02*X101040D01*
X99500Y289189D02*X100039Y288650D01*
X99500Y291191D02*Y289189D01*
Y291191D02*X100039Y291730D01*
X101040D01*
X101964Y291114D02*X102580Y291730D01*
Y288650D01*
X101964D02*X103119D01*
X104043Y291345D02*X104428Y291730D01*
X105583D01*
X105968Y291345D01*
Y290575D01*
X104043Y288650D02*X105968Y290575D01*
X104043Y288650D02*X105968D01*
X106500Y292500D02*X108500D01*
X109000Y292000D01*
Y291000D01*
X108500Y290500D02*X109000Y291000D01*
X107000Y290500D02*X108500D01*
X107000Y292500D02*Y288500D01*
X107800Y290500D02*X109000Y288500D01*
X110700D02*X112700Y292500D01*
X110200D02*X112700D01*
X100500Y310000D02*X102500D01*
X103000Y309500D01*
Y308500D01*
X102500Y308000D02*X103000Y308500D01*
X101000Y308000D02*X102500D01*
X101000Y310000D02*Y306000D01*
X101800Y308000D02*X103000Y306000D01*
X104200Y307500D02*X106200Y310000D01*
X104200Y307500D02*X106700D01*
X106200Y310000D02*Y306000D01*
X114000Y292230D02*X115540D01*
X115925Y291845D01*
Y291075D01*
X115540Y290690D02*X115925Y291075D01*
X114385Y290690D02*X115540D01*
X114385Y292230D02*Y289150D01*
X115001Y290690D02*X115925Y289150D01*
X116849Y291614D02*X117465Y292230D01*
Y289150D01*
X116849D02*X118004D01*
X118928Y289535D02*X119313Y289150D01*
X118928Y291845D02*Y289535D01*
Y291845D02*X119313Y292230D01*
X120083D01*
X120468Y291845D01*
Y289535D01*
X120083Y289150D02*X120468Y289535D01*
X119313Y289150D02*X120083D01*
X118928Y289920D02*X120468Y291460D01*
X132000Y269500D02*X134000D01*
X133000D02*Y265500D01*
X135200Y267000D02*X137200Y269500D01*
X135200Y267000D02*X137700D01*
X137200Y269500D02*Y265500D01*
X115000Y269000D02*X117000D01*
X116000D02*Y265000D01*
X118200Y268200D02*X119000Y269000D01*
Y265000D01*
X118200D02*X119700D01*
X105000Y269000D02*X107000D01*
X106000D02*Y265000D01*
X108200Y268500D02*X108700Y269000D01*
X110200D01*
X110700Y268500D01*
Y267500D01*
X108200Y265000D02*X110700Y267500D01*
X108200Y265000D02*X110700D01*
X123200Y288500D02*X124500D01*
X122500Y289200D02*X123200Y288500D01*
X122500Y291800D02*Y289200D01*
Y291800D02*X123200Y292500D01*
X124500D01*
X125700Y290000D02*X127700Y292500D01*
X125700Y290000D02*X128200D01*
X127700Y292500D02*Y288500D01*
X123000Y309345D02*Y307035D01*
Y309345D02*X123385Y309730D01*
X124155D01*
X124540Y309345D01*
Y307420D01*
X123770Y306650D02*X124540Y307420D01*
X123385Y306650D02*X123770D01*
X123000Y307035D02*X123385Y306650D01*
X123770Y307805D02*X124540Y306650D01*
X125464Y309114D02*X126080Y309730D01*
Y306650D01*
X125464D02*X126619D01*
X128000Y310000D02*X130000D01*
X130500Y309500D01*
Y308500D01*
X130000Y308000D02*X130500Y308500D01*
X128500Y308000D02*X130000D01*
X128500Y310000D02*Y306000D01*
X129300Y308000D02*X130500Y306000D01*
X131700Y310000D02*X133700D01*
X131700D02*Y308000D01*
X132200Y308500D01*
X133200D01*
X133700Y308000D01*
Y306500D01*
X133200Y306000D02*X133700Y306500D01*
X132200Y306000D02*X133200D01*
X131700Y306500D02*X132200Y306000D01*
X244500Y276500D02*X246500D01*
X245500D02*Y272500D01*
X248200D02*X250200Y276500D01*
X247700D02*X250200D01*
X246539Y278650D02*X247540D01*
X246000Y279189D02*X246539Y278650D01*
X246000Y281191D02*Y279189D01*
Y281191D02*X246539Y281730D01*
X247540D01*
X248849Y278650D02*X250004Y280190D01*
Y281345D02*Y280190D01*
X249619Y281730D02*X250004Y281345D01*
X248849Y281730D02*X249619D01*
X248464Y281345D02*X248849Y281730D01*
X248464Y281345D02*Y280575D01*
X248849Y280190D01*
X250004D01*
X247150Y289961D02*Y288960D01*
X247689Y290500D02*X247150Y289961D01*
X247689Y290500D02*X249691D01*
X250230Y289961D01*
Y288960D01*
X249614Y288036D02*X250230Y287420D01*
X247150D02*X250230D01*
X247150Y288036D02*Y286881D01*
X247535Y285957D02*X247150Y285572D01*
X247535Y285957D02*X249845D01*
X250230Y285572D01*
Y284802D01*
X249845Y284417D01*
X247535D02*X249845D01*
X247150Y284802D02*X247535Y284417D01*
X247150Y285572D02*Y284802D01*
X247920Y285957D02*X249460Y284417D01*
X222000Y269000D02*X224000D01*
X223000D02*Y265000D01*
X225200Y268200D02*X226000Y269000D01*
Y265000D01*
X225200D02*X226700D01*
X227900Y268200D02*X228700Y269000D01*
Y265000D01*
X227900D02*X229400D01*
X194000Y269500D02*X196000D01*
X195000D02*Y265500D01*
X197200Y266000D02*X197700Y265500D01*
X197200Y266800D02*Y266000D01*
Y266800D02*X197900Y267500D01*
X198500D01*
X199200Y266800D01*
Y266000D01*
X198700Y265500D02*X199200Y266000D01*
X197700Y265500D02*X198700D01*
X197200Y268200D02*X197900Y267500D01*
X197200Y269000D02*Y268200D01*
Y269000D02*X197700Y269500D01*
X198700D01*
X199200Y269000D01*
Y268200D01*
X198500Y267500D02*X199200Y268200D01*
X194200Y287000D02*X195500D01*
X193500Y287700D02*X194200Y287000D01*
X193500Y290300D02*Y287700D01*
Y290300D02*X194200Y291000D01*
X195500D01*
X198200D02*X198700Y290500D01*
X197200Y291000D02*X198200D01*
X196700Y290500D02*X197200Y291000D01*
X196700Y290500D02*Y287500D01*
X197200Y287000D01*
X198200Y289200D02*X198700Y288700D01*
X196700Y289200D02*X198200D01*
X197200Y287000D02*X198200D01*
X198700Y287500D01*
Y288700D02*Y287500D01*
X192700Y303500D02*X194000D01*
X192000Y304200D02*X192700Y303500D01*
X192000Y306800D02*Y304200D01*
Y306800D02*X192700Y307500D01*
X194000D01*
X195200Y306700D02*X196000Y307500D01*
Y303500D01*
X195200D02*X196700D01*
X197900Y306700D02*X198700Y307500D01*
Y303500D01*
X197900D02*X199400D01*
X193000Y276500D02*X195000D01*
X195500Y276000D01*
Y275000D01*
X195000Y274500D02*X195500Y275000D01*
X193500Y274500D02*X195000D01*
X193500Y276500D02*Y272500D01*
X194300Y274500D02*X195500Y272500D01*
X196700Y273000D02*X197200Y272500D01*
X196700Y273800D02*Y273000D01*
Y273800D02*X197400Y274500D01*
X198000D01*
X198700Y273800D01*
Y273000D01*
X198200Y272500D02*X198700Y273000D01*
X197200Y272500D02*X198200D01*
X196700Y275200D02*X197400Y274500D01*
X196700Y276000D02*Y275200D01*
Y276000D02*X197200Y276500D01*
X198200D01*
X198700Y276000D01*
Y275200D01*
X198000Y274500D02*X198700Y275200D01*
X193500Y297000D02*X195500D01*
X196000Y296500D01*
Y295500D01*
X195500Y295000D02*X196000Y295500D01*
X194000Y295000D02*X195500D01*
X194000Y297000D02*Y293000D01*
X194800Y295000D02*X196000Y293000D01*
X197700D02*X199200Y295000D01*
Y296500D02*Y295000D01*
X198700Y297000D02*X199200Y296500D01*
X197700Y297000D02*X198700D01*
X197200Y296500D02*X197700Y297000D01*
X197200Y296500D02*Y295500D01*
X197700Y295000D01*
X199200D01*
X220000Y274500D02*X222000D01*
X221000D02*Y270500D01*
X223200Y273700D02*X224000Y274500D01*
Y270500D01*
X223200D02*X224700D01*
X225900Y271000D02*X226400Y270500D01*
X225900Y274000D02*Y271000D01*
Y274000D02*X226400Y274500D01*
X227400D01*
X227900Y274000D01*
Y271000D01*
X227400Y270500D02*X227900Y271000D01*
X226400Y270500D02*X227400D01*
X225900Y271500D02*X227900Y273500D01*
X211500Y287500D02*X213500D01*
X214000Y287000D01*
Y286000D01*
X213500Y285500D02*X214000Y286000D01*
X212000Y285500D02*X213500D01*
X212000Y287500D02*Y283500D01*
X212800Y285500D02*X214000Y283500D01*
X215200Y286700D02*X216000Y287500D01*
Y283500D01*
X215200D02*X216700D01*
X217900Y287000D02*X218400Y287500D01*
X219400D01*
X219900Y287000D01*
X219400Y283500D02*X219900Y284000D01*
X218400Y283500D02*X219400D01*
X217900Y284000D02*X218400Y283500D01*
Y285700D02*X219400D01*
X219900Y287000D02*Y286200D01*
Y285200D02*Y284000D01*
Y285200D02*X219400Y285700D01*
X219900Y286200D02*X219400Y285700D01*
X223000Y287500D02*X225000D01*
X225500Y287000D01*
Y286000D01*
X225000Y285500D02*X225500Y286000D01*
X223500Y285500D02*X225000D01*
X223500Y287500D02*Y283500D01*
X224300Y285500D02*X225500Y283500D01*
X226700Y286700D02*X227500Y287500D01*
Y283500D01*
X226700D02*X228200D01*
X229400Y287500D02*X231400D01*
X229400D02*Y285500D01*
X229900Y286000D01*
X230900D01*
X231400Y285500D01*
Y284000D01*
X230900Y283500D02*X231400Y284000D01*
X229900Y283500D02*X230900D01*
X229400Y284000D02*X229900Y283500D01*
X227000Y307730D02*X228540D01*
X228925Y307345D01*
Y306575D01*
X228540Y306190D02*X228925Y306575D01*
X227385Y306190D02*X228540D01*
X227385Y307730D02*Y304650D01*
X228001Y306190D02*X228925Y304650D01*
X229849Y307114D02*X230465Y307730D01*
Y304650D01*
X229849D02*X231004D01*
X231928Y305805D02*X233468Y307730D01*
X231928Y305805D02*X233853D01*
X233468Y307730D02*Y304650D01*
X228000Y299230D02*X229540D01*
X229925Y298845D01*
Y298075D01*
X229540Y297690D02*X229925Y298075D01*
X228385Y297690D02*X229540D01*
X228385Y299230D02*Y296150D01*
X229001Y297690D02*X229925Y296150D01*
X230849Y298614D02*X231465Y299230D01*
Y296150D01*
X230849D02*X232004D01*
X234083Y299230D02*X234468Y298845D01*
X233313Y299230D02*X234083D01*
X232928Y298845D02*X233313Y299230D01*
X232928Y298845D02*Y296535D01*
X233313Y296150D01*
X234083Y297844D02*X234468Y297459D01*
X232928Y297844D02*X234083D01*
X233313Y296150D02*X234083D01*
X234468Y296535D01*
Y297459D02*Y296535D01*
X215000Y308500D02*Y305500D01*
Y308500D02*X215500Y309000D01*
X216500D01*
X217000Y308500D01*
Y306000D01*
X216000Y305000D02*X217000Y306000D01*
X215500Y305000D02*X216000D01*
X215000Y305500D02*X215500Y305000D01*
X216000Y306500D02*X217000Y305000D01*
X218200Y308500D02*X218700Y309000D01*
X220200D01*
X220700Y308500D01*
Y307500D01*
X218200Y305000D02*X220700Y307500D01*
X218200Y305000D02*X220700D01*
X135700Y274500D02*X137000D01*
X135000Y275200D02*X135700Y274500D01*
X135000Y277800D02*Y275200D01*
Y277800D02*X135700Y278500D01*
X137000D01*
X138200Y277700D02*X139000Y278500D01*
Y274500D01*
X138200D02*X139700D01*
X136000Y288730D02*X137540D01*
X137925Y288345D01*
Y287575D01*
X137540Y287190D02*X137925Y287575D01*
X136385Y287190D02*X137540D01*
X136385Y288730D02*Y285650D01*
X137001Y287190D02*X137925Y285650D01*
X138849Y288114D02*X139465Y288730D01*
Y285650D01*
X138849D02*X140004D01*
X136200Y304000D02*X137500D01*
X135500Y304700D02*X136200Y304000D01*
X135500Y307300D02*Y304700D01*
Y307300D02*X136200Y308000D01*
X137500D01*
X138700Y307500D02*X139200Y308000D01*
X140700D01*
X141200Y307500D01*
Y306500D01*
X138700Y304000D02*X141200Y306500D01*
X138700Y304000D02*X141200D01*
X147500Y308500D02*X149500D01*
X150000Y308000D01*
Y307000D01*
X149500Y306500D02*X150000Y307000D01*
X148000Y306500D02*X149500D01*
X148000Y308500D02*Y304500D01*
X148800Y306500D02*X150000Y304500D01*
X151200Y308000D02*X151700Y308500D01*
X152700D01*
X153200Y308000D01*
X152700Y304500D02*X153200Y305000D01*
X151700Y304500D02*X152700D01*
X151200Y305000D02*X151700Y304500D01*
Y306700D02*X152700D01*
X153200Y308000D02*Y307200D01*
Y306200D02*Y305000D01*
Y306200D02*X152700Y306700D01*
X153200Y307200D02*X152700Y306700D01*
X143500Y278500D02*X145500D01*
X146000Y278000D01*
Y277000D01*
X145500Y276500D02*X146000Y277000D01*
X144000Y276500D02*X145500D01*
X144000Y278500D02*Y274500D01*
X144800Y276500D02*X146000Y274500D01*
X147200Y278000D02*X147700Y278500D01*
X149200D01*
X149700Y278000D01*
Y277000D01*
X147200Y274500D02*X149700Y277000D01*
X147200Y274500D02*X149700D01*
X149539Y286150D02*X150540D01*
X149000Y286689D02*X149539Y286150D01*
X149000Y288691D02*Y286689D01*
Y288691D02*X149539Y289230D01*
X150540D01*
X151464Y288845D02*X151849Y289230D01*
X152619D01*
X153004Y288845D01*
X152619Y286150D02*X153004Y286535D01*
X151849Y286150D02*X152619D01*
X151464Y286535D02*X151849Y286150D01*
Y287844D02*X152619D01*
X153004Y288845D02*Y288229D01*
Y287459D02*Y286535D01*
Y287459D02*X152619Y287844D01*
X153004Y288229D02*X152619Y287844D01*
X143500Y270000D02*X145500D01*
X146000Y269500D01*
Y268500D01*
X145500Y268000D02*X146000Y268500D01*
X144000Y268000D02*X145500D01*
X144000Y270000D02*Y266000D01*
X144800Y268000D02*X146000Y266000D01*
X147200Y269200D02*X148000Y270000D01*
Y266000D01*
X147200D02*X148700D01*
X149900Y269200D02*X150700Y270000D01*
Y266000D01*
X149900D02*X151400D01*
X158000Y281230D02*X159540D01*
X159925Y280845D01*
Y280075D01*
X159540Y279690D02*X159925Y280075D01*
X158385Y279690D02*X159540D01*
X158385Y281230D02*Y278150D01*
X159001Y279690D02*X159925Y278150D01*
X160849Y280614D02*X161465Y281230D01*
Y278150D01*
X160849D02*X162004D01*
X162928Y280845D02*X163313Y281230D01*
X164468D01*
X164853Y280845D01*
Y280075D01*
X162928Y278150D02*X164853Y280075D01*
X162928Y278150D02*X164853D01*
X172539D02*X173540D01*
X172000Y278689D02*X172539Y278150D01*
X172000Y280691D02*Y278689D01*
Y280691D02*X172539Y281230D01*
X173540D01*
X174849Y278150D02*X176389Y281230D01*
X174464D02*X176389D01*
X179039Y278150D02*X180040D01*
X178500Y278689D02*X179039Y278150D01*
X178500Y280691D02*Y278689D01*
Y280691D02*X179039Y281230D01*
X180040D01*
X180964Y278535D02*X181349Y278150D01*
X180964Y279151D02*Y278535D01*
Y279151D02*X181503Y279690D01*
X181965D01*
X182504Y279151D01*
Y278535D01*
X182119Y278150D02*X182504Y278535D01*
X181349Y278150D02*X182119D01*
X180964Y280229D02*X181503Y279690D01*
X180964Y280845D02*Y280229D01*
Y280845D02*X181349Y281230D01*
X182119D01*
X182504Y280845D01*
Y280229D01*
X181965Y279690D02*X182504Y280229D01*
X185539Y278150D02*X186540D01*
X185000Y278689D02*X185539Y278150D01*
X185000Y280691D02*Y278689D01*
Y280691D02*X185539Y281230D01*
X186540D01*
X187464D02*X189004D01*
X187464D02*Y279690D01*
X187849Y280075D01*
X188619D01*
X189004Y279690D01*
Y278535D01*
X188619Y278150D02*X189004Y278535D01*
X187849Y278150D02*X188619D01*
X187464Y278535D02*X187849Y278150D01*
X170000Y306500D02*Y303000D01*
X170500Y302500D01*
X171500D01*
X172000Y303000D01*
Y306500D02*Y303000D01*
X173200Y305700D02*X174000Y306500D01*
Y302500D01*
X173200D02*X174700D01*
M02*
